
<svg id="Component_16_3" data-name="Component 16 – 3" xmlns="http://www.w3.org/2000/svg" width="511.3" height="556.816" viewBox="0 0 511.3 556.816">
  <g id="chatbot" transform="translate(0 0)">
    <g id="background_2" transform="translate(0 49.536)">
      <path id="Path" d="M.635,1.635h412.7c.8,0,.8-1.635,0-1.635H.635c-.847,0-.847,1.635,0,1.635Z" transform="translate(39.809 482.268)" fill="#e8e8e8"/>
      <path id="Path-2" data-name="Path" d="M.6,1.635H153.657c.8,0,.8-1.635,0-1.635H.6C-.2,0-.2,1.635.6,1.635Z" transform="translate(132.122 493.984)" fill="#e8e8e8"/>
      <path id="Path-3" data-name="Path" d="M.6,1.635H147.9c.8,0,.8-1.635,0-1.635H.6C-.2,0-.2,1.635.6,1.635Z" transform="translate(265.526 505.645)" fill="#e8e8e8"/>
      <path id="Path-4" data-name="Path" d="M0,.817v99.5c0,1.035,1.271,1.035,1.271,0V.817C1.271-.272,0-.272,0,.817Z" transform="translate(2.202 222.728)" fill="#e8e8e8"/>
      <path id="Path-5" data-name="Path" d="M.6,1.635H53.33c.8,0,.8-1.635,0-1.635H.6C-.2,0-.2,1.635.6,1.635Z" transform="translate(2.446 222.51)" fill="#e8e8e8"/>
      <path id="Path-6" data-name="Path" d="M0,.817V99.609c0,1.035,1.271,1.035,1.271,0V.817C1.271-.272,0-.272,0,.817Z" transform="translate(55.902 222.51)" fill="#e8e8e8"/>
      <path id="Path-7" data-name="Path" d="M.6,1.635H53.5c.8,0,.8-1.635,0-1.635H.6C-.2,0-.2,1.635.6,1.635Z" transform="translate(2.827 322.446)" fill="#e8e8e8"/>
      <path id="Path-8" data-name="Path" d="M2.522,4.895A1.875,1.875,0,0,1,1.252,3.042C1.294,1.952,2.141,1.3,2.9,1.734A2.312,2.312,0,0,1,3.92,3.914c-.042.817-.847,1.526-1.4.981-.635-.708-1.567.436-.932,1.144,1.059,1.09,2.626.708,3.346-.817A4.26,4.26,0,0,0,3.581.372C2.226-.554.574.318.108,2.225a3.59,3.59,0,0,0,2.075,4.25c.8.218,1.143-1.362.339-1.58Z" transform="translate(49.272 226.77)" fill="#e8e8e8"/>
      <path id="Path-9" data-name="Path" d="M1.794,4.889a2.31,2.31,0,0,1-.169-2.725,1.313,1.313,0,0,1,2.287.381c.3.654.72,2.343,0,2.834-.381.272-.889-.163-1.186-.436a6.959,6.959,0,0,0-1.313-.817c-.762-.381-1.1,1.2-.339,1.58.8.381,1.44,1.144,2.287,1.362A1.64,1.64,0,0,0,5.14,6.142,5.483,5.483,0,0,0,4.5.911a2.35,2.35,0,0,0-3.9.272,4.309,4.309,0,0,0,.3,4.85C1.5,6.8,2.429,5.6,1.794,4.889Z" transform="translate(48.306 310.637)" fill="#e8e8e8"/>
      <path id="Path-10" data-name="Path" d="M.6,1.744c10.545-.054,21.09-.054,31.593-.109C33,1.635,33,0,32.2,0,21.652.054,11.106.054.6.109c-.8,0-.8,1.635,0,1.635Z" transform="translate(5.791 228.341)" fill="#e8e8e8"/>
      <path id="Path-11" data-name="Path" d="M.6,1.636c4.32.381,8.724,1.253,13.044.218.8-.218.466-1.744-.339-1.58C9.158,1.255,4.8.383.6,0c-.8-.054-.8,1.58,0,1.635Z" transform="translate(5.791 232.372)" fill="#e8e8e8"/>
      <path id="Path-12" data-name="Path" d="M1.667,3.572c-.339-.163-.466-.763-.424-1.2a.768.768,0,0,1,.974-.708A1.328,1.328,0,0,1,3.234,2.973c.042.545-.466,1.417-.932.926-.635-.654-1.525.49-.889,1.144,1.016,1.035,2.541.545,3.007-1.09A3.272,3.272,0,0,0,2.852.139,2.058,2.058,0,0,0,.1,1.774,2.874,2.874,0,0,0,1.37,5.1c.762.381,1.1-1.144.3-1.526Z" transform="translate(5.364 313.752)" fill="#e8e8e8"/>
      <path id="Path-13" data-name="Path" d="M.6,1.635H34.568c.8,0,.8-1.635,0-1.635H.6C-.2,0-.2,1.635.6,1.635Z" transform="translate(7.189 245.56)" fill="#e8e8e8"/>
      <path id="Path-14" data-name="Path" d="M.6,1.635H27.327c.8,0,.8-1.635,0-1.635H.6C-.2,0-.2,1.635.6,1.635Z" transform="translate(9.095 250.954)" fill="#e8e8e8"/>
      <path id="Path-15" data-name="Path" d="M.6,1.635H26.352c.8,0,.8-1.635,0-1.635H.6C-.2,0-.2,1.635.6,1.635Z" transform="translate(8.714 260.327)" fill="#e8e8e8"/>
      <path id="Path-16" data-name="Path" d="M1.271,8.133V.776C1.271-.259,0-.259,0,.776V8.133c0,1.035,1.271,1.035,1.271,0Z" transform="translate(0 169.695)" fill="#e8e8e8"/>
      <path id="Path-17" data-name="Path" d="M.6,1.635H138.962c.8,0,.8-1.635,0-1.635H.6C-.2,0-.2,1.635.6,1.635Z" transform="translate(0.455 168.673)" fill="#e8e8e8"/>
      <path id="Path-18" data-name="Path" d="M.635,1.635H139.629c.8,0,.8-1.635,0-1.635H.635c-.847,0-.847,1.635,0,1.635Z" transform="translate(0.127 177.174)" fill="#e8e8e8"/>
      <path id="Path-19" data-name="Path" d="M0,.776V8.46C0,9.5,1.271,9.5,1.271,8.46V.776C1.271-.259,0-.259,0,.776Z" transform="translate(139.29 168.768)" fill="#e8e8e8"/>
      <path id="Path-20" data-name="Path" d="M1.271,12.656V.776C1.271-.259,0-.259,0,.776V12.656c0,1.035,1.271,1.035,1.271,0Z" transform="translate(67.633 156.399)" fill="#e8e8e8"/>
      <path id="Path-21" data-name="Path" d="M0,.817V12.7c0,1.035,1.271,1.035,1.271,0V.817C1.271-.272,0-.272,0,.817Z" transform="translate(72.758 155.323)" fill="#e8e8e8"/>
      <path id="Path-22" data-name="Path" d="M.6,1.635H30.122c.8,0,.8-1.635,0-1.635H.6C-.2,0-.2,1.635.6,1.635Z" transform="translate(72.832 155.323)" fill="#e8e8e8"/>
      <path id="Path-23" data-name="Path" d="M1.271,47.312V.776C1.271-.259,0-.259,0,.776V47.312c0,1.035,1.271,1.035,1.271,0Z" transform="translate(102.488 108.61)" fill="#e8e8e8"/>
      <path id="Path-24" data-name="Path" d="M62.35,0H.6C-.2,0-.2,1.635.6,1.635H62.35c.8,0,.8-1.635,0-1.635Z" transform="translate(40.773 108.461)" fill="#e8e8e8"/>
      <path id="Path-25" data-name="Path" d="M0,.776V43.661c0,1.035,1.271,1.035,1.271,0V.776C1.271-.259,0-.259,0,.776Z" transform="translate(40.445 108.61)" fill="#e8e8e8"/>
      <path id="Path-26" data-name="Path" d="M27.5,0H.6C-.2,0-.2,1.635.6,1.635H27.5c.8,0,.8-1.635,0-1.635Z" transform="translate(40.688 156.195)" fill="#e8e8e8"/>
      <path id="Path-27" data-name="Path" d="M0,.776V6.226c0,1.035,1.271,1.035,1.271,0V.776C1.271-.259,0-.259,0,.776Z" transform="translate(40.445 150.023)" fill="#e8e8e8"/>
      <path id="Path-28" data-name="Path" d="M0,.776V39.52c0,1.035,1.271,1.035,1.271,0V.776C1.271-.259,0-.259,0,.776Z" transform="translate(44.129 112.261)" fill="#e8e8e8"/>
      <path id="Path-29" data-name="Path" d="M.6,1.635H54.346c.8,0,.8-1.635,0-1.635H.6C-.2,0-.2,1.635.6,1.635Z" transform="translate(44.33 151.072)" fill="#e8e8e8"/>
      <path id="Path-30" data-name="Path" d="M1.271,37.449V.776C1.271-.259,0-.259,0,.776V37.449c0,1.035,1.271,1.035,1.271,0Z" transform="translate(98.253 113.624)" fill="#e8e8e8"/>
      <path id="Path-31" data-name="Path" d="M.635,1.635H54.462c.8,0,.8-1.635,0-1.635H.635c-.847,0-.847,1.635,0,1.635Z" transform="translate(44.425 112.111)" fill="#e8e8e8"/>
      <path id="Path-32" data-name="Path" d="M0,.817V1.2a.763.763,0,0,0,.635.817A.763.763,0,0,0,1.271,1.2V.817A.763.763,0,0,0,.635,0,.8.8,0,0,0,0,.817Z" transform="translate(98.126 112.929)" fill="#e8e8e8"/>
      <path id="Path-33" data-name="Path" d="M.43,1.57C6.062,3.641,12.161,3.859,17.92,4.676c6.522.926,13.044,1.8,19.566,2.725,12.917,1.8,25.791,3.542,38.708,5.34.8.109.8-1.526,0-1.635L38.333,5.875C32.108,5,25.84,4.131,19.614,3.314,13.389,2.442,6.782,2.278.768.044.006-.283-.333,1.3.43,1.57Z" transform="translate(352.348 199.58)"/>
      <path id="Path-34" data-name="Path" d="M14.664.407A292.675,292.675,0,0,1,.1,35.5c-.424.872.678,1.689,1.1.817A292.675,292.675,0,0,0,15.765,1.225C16.1.3,15-.519,14.664.407Z" transform="translate(428.701 175.622)"/>
      <path id="Path-35" data-name="Path" d="M.9,26.869c8.639-8.01,17.025-16.511,25.029-25.5.635-.708-.3-1.853-.889-1.144C17.076,9.1,8.818,17.551.263,25.452c-.635.6,0,2.071.635,1.417Z" transform="translate(352.642 173.736)"/>
      <path id="Path-36" data-name="Path" d="M.6,2.489c10.757-1.635,21.641-.545,32.44.163L65.992,4.777c.8.054.8-1.58,0-1.635L33.044,1.017C22.244.309,11.36-.781.6.854-.2.963-.2,2.6.6,2.489Z" transform="translate(377.796 172.396)"/>
      <path id="Path-37" data-name="Path" d="M2.162.371C1.485,1.843.765,3.259.087,4.731c-.254.49.085,1.253.551,1.253A21.462,21.462,0,0,1,5.211,6.2c.847.109,2.287.872,3.176.49,1.355-.6,2.287-3.814,2.837-5.231.381-.926-.72-1.744-1.1-.817A21.449,21.449,0,0,1,8.853,3.586c-.889,1.362-1.736,1.362-3.007,1.09A23.924,23.924,0,0,0,.638,4.349c.169.436.381.817.551,1.253.678-1.471,1.4-2.888,2.075-4.359C3.687.317,2.586-.5,2.162.371Z" transform="translate(390.044 184.867)" fill="#e8e8e8"/>
      <path id="Path-38" data-name="Path" d="M.808,2.215a8.563,8.563,0,0,1,7.2.49c.762.436,1.4-.981.635-1.417A9.5,9.5,0,0,0,.427.635C-.335.907,0,2.488.808,2.215Z" transform="translate(392.245 183.84)" fill="#e8e8e8"/>
      <path id="Path-39" data-name="Path" d="M.6,1.655a17.949,17.949,0,0,1,6.564.872c.8.272,1.143-1.308.339-1.58A19.975,19.975,0,0,0,.6.021C-.2.075-.2,1.71.6,1.655Z" transform="translate(372.883 185.654)" fill="#e8e8e8"/>
      <path id="Path-40" data-name="Path" d="M1.063,6.816c1.355-1.907,2.8-3.705,4.277-5.449.593-.708-.3-1.853-.889-1.144C2.968,1.967,1.571,3.819.173,5.672c-.551.763.339,1.962.889,1.144Z" transform="translate(372.678 179.784)" fill="#e8e8e8"/>
      <path id="Path-41" data-name="Path" d="M.317,1.5c1.863,1.2,4.277.872,6.353.926.8.054.8-1.58,0-1.635C4.933.739,2.561,1.12.952.085.232-.351-.4,1.011.317,1.5Z" transform="translate(376.855 179.704)" fill="#e8e8e8"/>
      <path id="Path-42" data-name="Path" d="M3.06.373C2.043,2.171,1.027,4.024.1,5.931c-.424.872.678,1.689,1.1.817C2.128,4.841,3.1,2.988,4.161,1.19,4.627.318,3.526-.5,3.06.373Z" transform="translate(379.533 180.724)" fill="#e8e8e8"/>
      <path id="Path-43" data-name="Path" d="M0,.817V50.4c0,1.035,1.271,1.035,1.271,0V.817C1.271-.272,0-.272,0,.817Z" transform="translate(434.344 103.175)" fill="#e8e8e8"/>
      <path id="Path-44" data-name="Path" d="M.635,1.635H56.2C57,1.635,57,0,56.2,0H.635c-.847,0-.847,1.635,0,1.635Z" transform="translate(434.641 152.762)" fill="#e8e8e8"/>
      <path id="Path-45" data-name="Path" d="M1.694,50.091C1.567,33.635,1.4,17.178,1.271.776,1.271-.259,0-.259,0,.776.127,17.233.3,33.689.424,50.091c0,1.035,1.271,1.035,1.271,0Z" transform="translate(489.823 103.379)" fill="#e8e8e8"/>
      <path id="Path-46" data-name="Path" d="M.6,1.635H55.066c.8,0,.8-1.635,0-1.635H.6C-.2,0-.2,1.635.6,1.635Z" transform="translate(434.545 102.739)" fill="#e8e8e8"/>
      <path id="Path-47" data-name="Path" d="M1.325,9.55a13.234,13.234,0,0,1,.212-4.468C1.791,3.828,2.68.886,4.12,1.812c.847.545,1.1,2.507,1.228,3.6a21.964,21.964,0,0,1,.042,4.414c-.085,1.035,1.186,1.035,1.271,0C6.873,7.1,6.873-.367,3.4.014.182.4-.242,6.989.1,9.986c.127,1.035,1.355.6,1.228-.436Z" transform="translate(461.097 93.243)" fill="#e8e8e8"/>
      <path id="Path-48" data-name="Path" d="M0,.776v60.1c0,1.035,1.271,1.035,1.271,0V.776C1.271-.259,0-.259,0,.776Z" transform="translate(368.236 12.052)" fill="#e8e8e8"/>
      <path id="Path-49" data-name="Path" d="M.6,1.635H67.9c.8,0,.8-1.635,0-1.635H.6C-.2,0-.2,1.635.6,1.635Z" transform="translate(368.648 72.115)" fill="#e8e8e8"/>
      <path id="Path-50" data-name="Path" d="M1.779,60.553C1.609,40.609,1.44,20.72,1.271.776,1.271-.259,0-.259,0,.776.169,20.72.339,40.609.508,60.553c0,1.035,1.271,1.035,1.271,0Z" transform="translate(435.488 12.216)" fill="#e8e8e8"/>
      <path id="Path-51" data-name="Path" d="M.6,1.635H66.585c.8,0,.8-1.635,0-1.635H.6C-.2,0-.2,1.635.6,1.635Z" transform="translate(368.521 11.521)" fill="#e8e8e8"/>
      <path id="Path-52" data-name="Path" d="M1.314,11.467a17.122,17.122,0,0,1,.254-5.5c.339-1.58,1.44-5.286,3.346-4.087,2.118,1.362,1.821,7.411,1.609,9.808-.085,1.035,1.186,1.035,1.271,0C8.048,8.524,8.09-.521,3.982.024.171.514-.3,8.361.128,11.9c.085,1.035,1.313.6,1.186-.436Z" transform="translate(400.717 0)" fill="#e8e8e8"/>
      <path id="Path-53" data-name="Path" d="M0,.817V49.968C0,51,1.271,51,1.271,49.968V.817C1.271-.272,0-.272,0,.817Z" transform="translate(371.835 16.589)" fill="#e8e8e8"/>
      <path id="Path-54" data-name="Path" d="M.619,1.635h59.46c.8,0,.8-1.635,0-1.635H.619c-.8,0-.847,1.635,0,1.635Z" transform="translate(371.851 66.829)" fill="#e8e8e8"/>
      <path id="Path-55" data-name="Path" d="M1.271,49.055V.776C1.271-.259,0-.259,0,.776V49.055c0,1.035,1.271,1.035,1.271,0Z" transform="translate(432.142 17.937)" fill="#e8e8e8"/>
      <path id="Path-56" data-name="Path" d="M.6,1.635h59.46c.8,0,.8-1.635,0-1.635H.6C-.2,0-.2,1.635.6,1.635Z" transform="translate(372.375 16.371)" fill="#e8e8e8"/>
      <path id="Path-57" data-name="Path" d="M.635,1.635H62c.8,0,.8-1.635,0-1.635H.635c-.847,0-.847,1.635,0,1.635Z" transform="translate(378.95 295.855)" fill="#e8e8e8"/>
      <path id="Path-58" data-name="Path" d="M0,.817V15.857c0,1.035,1.271,1.035,1.271,0V.817C1.271-.272,0-.272,0,.817Z" transform="translate(408.722 298.143)" fill="#e8e8e8"/>
      <path id="Path-59" data-name="Path" d="M.619,1.635H31.027c.8,0,.8-1.635,0-1.635H.619c-.8,0-.847,1.635,0,1.635Z" transform="translate(398.828 315.417)" fill="#e8e8e8"/>
      <path id="Path-60" data-name="Path" d="M0,.776V54.94c0,1.035,1.271,1.035,1.271,0V.776C1.271-.259,0-.259,0,.776Z" transform="translate(85.505 259.823)" fill="#e8e8e8"/>
      <path id="Path-61" data-name="Path" d="M.635,1.635H62.594c.8,0,.8-1.635,0-1.635H.635c-.847,0-.847,1.635,0,1.635Z" transform="translate(85.505 259.782)" fill="#e8e8e8"/>
      <path id="Path-62" data-name="Path" d="M.6,1.744c20.752-.054,41.5-.054,62.255-.109.8,0,.8-1.635,0-1.635C42.107.054,21.355.054.6.109c-.8,0-.8,1.635,0,1.635Z" transform="translate(85.579 314.218)" fill="#e8e8e8"/>
      <path id="Path-63" data-name="Path" d="M0,.776V53.8c0,1.035,1.271,1.035,1.271,0V.776C1.271-.259,0-.259,0,.776Z" transform="translate(147.845 260.041)" fill="#e8e8e8"/>
      <path id="Path-64" data-name="Path" d="M1.869,4.176c-.889-.654-.678-2.507.424-2.561,1.482-.054.593,3.215-.381,2.4-.678-.6-1.313.817-.635,1.417C3.648,7.5,5.807,1.342,3.012.143,1.911-.347.641.47.175,1.833a3.526,3.526,0,0,0,1.016,3.76c.762.545,1.4-.872.678-1.417Z" transform="translate(88.973 263.998)" fill="#e8e8e8"/>
      <path id="Path-65" data-name="Path" d="M.635,1.635H37.226c.8,0,.8-1.635,0-1.635H.635c-.847,0-.847,1.635,0,1.635Z" transform="translate(92.959 272.587)" fill="#e8e8e8"/>
      <path id="Path-66" data-name="Path" d="M.635,1.635h21.09c.8,0,.8-1.635,0-1.635H.635c-.847,0-.847,1.635,0,1.635Z" transform="translate(93.509 279.262)" fill="#e8e8e8"/>
      <path id="Path-67" data-name="Path" d="M1.271,18.159V.776C1.271-.259,0-.259,0,.776V18.159c0,1.035,1.271,1.035,1.271,0Z" transform="translate(94.06 303.525)" fill="#e8e8e8"/>
      <path id="Path-68" data-name="Path" d="M.6,1.635H31.265c.8,0,.8-1.635,0-1.635H.6C-.2,0-.2,1.635.6,1.635Z" transform="translate(94.219 295.746)" fill="#e8e8e8"/>
      <path id="Path-69" data-name="Path" d="M0,.817V18.036c0,1.035,1.271,1.035,1.271,0V.817C1.271-.272,0-.272,0,.817Z" transform="translate(124.849 296.127)" fill="#e8e8e8"/>
      <path id="Path-70" data-name="Path" d="M1.271,12.165V.776C1.271-.259,0-.259,0,.776V12.165c0,1.09,1.271,1.09,1.271,0Z" transform="translate(99.82 302.108)" fill="#e8e8e8"/>
      <path id="Path-71" data-name="Path" d="M1.271,12.165V.776C1.271-.259,0-.259,0,.776V12.165c0,1.09,1.271,1.09,1.271,0Z" transform="translate(104.902 302.108)" fill="#e8e8e8"/>
      <path id="Path-72" data-name="Path" d="M1.271,11.293V.776C1.271-.259,0-.259,0,.776V11.293c0,1.035,1.271,1.035,1.271,0Z" transform="translate(109.814 302.816)" fill="#e8e8e8"/>
      <path id="Path-73" data-name="Path" d="M1.271,11.62V.776C1.271-.259,0-.259,0,.776V11.62c0,1.035,1.271,1.035,1.271,0Z" transform="translate(114.896 303.034)" fill="#e8e8e8"/>
      <path id="Path-74" data-name="Path" d="M1.271,10.912V.776C1.271-.259,0-.259,0,.776V10.912c0,1.09,1.271,1.09,1.271,0Z" transform="translate(120.359 302.816)" fill="#e8e8e8"/>
      <path id="Path-75" data-name="Path" d="M1.737,3.433c-.508-.272-.593-1.417,0-1.689a.54.54,0,0,1,.762.327c.085.218-.085.763-.339.708a.636.636,0,0,0-.762.545c-.085.381.085.926.424.981,1.016.218,1.906-.763,1.948-2.071A2.069,2.069,0,0,0,1.948,0,2.085,2.085,0,0,0,.043,1.962,2.882,2.882,0,0,0,1.017,4.8c.8.49,1.44-.926.72-1.362Z" transform="translate(142.508 262.615)" fill="#e8e8e8"/>
    </g>
    <g id="background" transform="translate(20.633)">
      <ellipse id="Oval" cx="5.717" cy="7.356" rx="5.717" ry="7.356" transform="translate(332.314 285.288)" fill="#48c2bf"/>
      <ellipse id="Oval-2" data-name="Oval" cx="3.007" cy="3.869" rx="3.007" ry="3.869" transform="translate(346.332 276.133)" fill="#48c2bf"/>
      <ellipse id="Oval-3" data-name="Oval" cx="7.369" cy="9.481" rx="7.369" ry="9.481" transform="translate(280.604 7.983)" fill="#0070bc"/>
      <ellipse id="Oval-4" data-name="Oval" cx="4.023" cy="5.177" rx="4.023" ry="5.177" transform="translate(60.595 252.975)" fill="#0070bc"/>
      <ellipse id="Oval-5" data-name="Oval" cx="4.32" cy="5.558" rx="4.32" ry="5.558" transform="translate(65.55 241.75)" fill="#48c2bf"/>
      <ellipse id="Oval-6" data-name="Oval" cx="6.437" cy="8.283" rx="6.437" ry="8.283" transform="translate(274.463 7.983)" fill="#48c2bf"/>
      <path id="Path-76" data-name="Path" d="M1.359,16.117c.085-1.144.508-1.635,1.228-1.58a2.2,2.2,0,0,1,1.186-.054,5.635,5.635,0,0,0,1.355,0,2.75,2.75,0,0,0,1.736-1.09,5.9,5.9,0,0,0,.678-2.452c.381-2.888,1.99-1.907,3.473-1.417,1.652.545,3.007.054,4.108-1.635a18.044,18.044,0,0,0,1.4-3.16c.508-1.308,2.965-5.34,3.812-2.071.254.981,1.482.545,1.228-.436-.678-2.561-3.092-2.834-4.574-1.2-1.313,1.471-1.652,3.76-2.668,5.449-1.736,3-3.557.49-5.76.6A2.255,2.255,0,0,0,6.611,8.76c-.593,1.58.042,2.289-1.313,3.378-1.228,1.035-1.567.436-2.88.654C.724,13.12-1.055,15.844.767,17.479c.593.654,1.228-.763.593-1.362Z" transform="translate(301.987 125.697)" fill="#48c2bf"/>
      <path id="Path-77" data-name="Path" d="M1.681,14.345C1,13.2,1.258,12.6,2.4,12.438a1.718,1.718,0,0,1,2.245-.381c.381.054.8.163,1.186.218a3.942,3.942,0,0,0,2.583-.6.951.951,0,0,0,.212-1.144c-1.482-3.869,3.134-4.523,4.7-4.632a9.606,9.606,0,0,0,3.9-.6A5.207,5.207,0,0,0,20.1.776c.085-1.035-1.186-1.035-1.271,0-.381,5.286-7.157,2.616-9.614,4.577A5.252,5.252,0,0,0,7.568,11.4a10.848,10.848,0,0,0,.212-1.144C5.62,11.566,2.4,8.732.58,11.511A3.358,3.358,0,0,0,1,15.816c.762.49,1.4-.926.678-1.471Z" transform="translate(307.298 131.991)" fill="#48c2bf"/>
      <path id="Path-78" data-name="Path" d="M1.1.274c-2.8,4.523.085,11.77,4.616,11.116,2.2-.327,4.955-2.016,5.844,1.853.424,1.8.169,3.76.508,5.558.466,2.616,2.118,5.395,4.4,4.414.762-.327.424-1.907-.339-1.58-3.092,1.308-2.88-5.613-3.176-7.847-.254-1.962-.889-3.814-2.414-4.523-2.2-1.035-4.489,1.308-6.649.272C1.483,8.393.382,4.034,2.034,1.418,2.5.655,1.61-.543,1.1.274Z" transform="translate(437.003 73.589)" fill="#e8e8e8"/>
      <path id="Path-79" data-name="Path" d="M.483.371A5.506,5.506,0,0,0,1.711,6.529C3.617,8.49,5.777,8.327,8.106,8.6a5.133,5.133,0,0,1,4.616,3.215c.72,1.58.974,3.433,1.736,4.959,1.059,2.071,2.922,3.6,4.828,2.561.762-.381.424-1.962-.339-1.58-2.71,1.471-3.854-3.051-4.616-5.34-.635-1.962-1.482-3.6-3.049-4.523a9.573,9.573,0,0,0-4.4-.981c-1.906-.163-7.2-1.58-5.294-5.667C2.008.317.906-.5.483.371Z" transform="translate(431.735 84.553)" fill="#e8e8e8"/>
      <path id="Path-80" data-name="Path" d="M1.516,6.341c.551-1.853,1.271-2.4,2.118-1.58a2.715,2.715,0,0,1,.932.763c.508.49.932,1.035,1.44,1.526A5.738,5.738,0,0,0,8,8.411a2.728,2.728,0,0,0,3.092-1.2c.974-1.253,1.228-3.6,2.329-4.686,1.059-1.035,1.736.6,2.5,1.526.762.872,1.567,1.689,2.372,2.452.678.6,1.313-.817.635-1.417a30.869,30.869,0,0,1-4.15-4.85A.581.581,0,0,0,14.136.02c-1.355.545-2.075,1.907-2.753,3.487-.593,1.417-.932,2.616-2.245,3.051C7.445,7.1,6.471,5.305,5.2,4.106S2.321,2.036.923,3.453A3.373,3.373,0,0,0,.288,7.158c.551.926,1.652.109,1.228-.817Z" transform="translate(0 391.035)" fill="#e8e8e8"/>
      <path id="Path-81" data-name="Path" d="M.016,1.04C.482,3.928,2.6,6.217,4.971,5.781,6.326,5.563,7.258,4.364,8.4,3.492a4.724,4.724,0,0,1,6.395.054c.678.545,1.313-.872.635-1.417A5.737,5.737,0,0,0,8.952,1.2a22.376,22.376,0,0,0-2.71,2.18C4.166,4.909,1.71,3.71,1.2.55,1.075-.431-.153,0,.016,1.04Z" transform="translate(1.881 403.692)" fill="#e8e8e8"/>
      <path id="Path-82" data-name="Path" d="M.6,1.64c3.473.436,6.437,3.16,8,7.138.381.926,1.482.109,1.1-.817C7.93,3.438,4.542.5.6.005-.2-.1-.2,1.531.6,1.64Z" transform="translate(84.131 15.661)" fill="#161616"/>
      <path id="Path-83" data-name="Path" d="M.317,1.5c5.76,3.542,10.291,9.59,12.747,17.165.3.981,1.525.545,1.228-.436C11.709,10.218,7.008,3.788.952.082.232-.354-.4,1.063.317,1.5Z" transform="translate(84.756 0)" fill="#161616"/>
    </g>
    <g id="tabs" transform="translate(52.853 39.261)">
      <path id="Path-84" data-name="Path" d="M0,0Q.508,30.161.974,60.321A316.048,316.048,0,0,0,60.053,75.415a302.269,302.269,0,0,0,82.5,1.253c.635-20.543,1.313-41.032,1.948-61.575q-29.222-1.471-60.053-4.414Q40.55,6.43,0,0Z" transform="translate(65.304 229.352)" fill="#48c2bf" opacity="0.3"/>
      <g id="Group" transform="translate(70.138 237.342)" opacity="0.3">
        <g id="Group-2" data-name="Group" transform="translate(0 0)">
          <path id="Path-85" data-name="Path" d="M.46,1.6A311.876,311.876,0,0,0,72.71,12.989c.8.054.8-1.58,0-1.635A308.966,308.966,0,0,1,.8.021C-.006-.2-.345,1.383.46,1.6Z" transform="translate(0 0)" fill="#ec615b"/>
        </g>
      </g>
      <g id="Group-3" data-name="Group" transform="translate(71.197 248.489)" opacity="0.3">
        <g id="Group-4" data-name="Group" transform="translate(0 0)">
          <path id="Path-86" data-name="Path" d="M.46,1.625a141.233,141.233,0,0,0,33.33,8.392c.8.109.8-1.526,0-1.635A141.1,141.1,0,0,1,.8.044C-.006-.283-.345,1.3.46,1.625Z" transform="translate(0)" fill="#ec615b"/>
        </g>
      </g>
      <g id="Group-5" data-name="Group" transform="translate(104.018 291.733)" opacity="0.3">
        <g id="Group-6" data-name="Group" transform="translate(0 0)">
          <path id="Path-87" data-name="Path" d="M.46,1.592C30.19,7.423,60.386,13.2,90.5,8.785c.8-.109.8-1.744,0-1.635C60.47,11.564,30.444,5.842.8.012-.006-.152-.345,1.429.46,1.592Z" transform="translate(0 0)" fill="#ec615b"/>
        </g>
      </g>
      <g id="Group-7" data-name="Group" transform="translate(150.307 289.008)" opacity="0.3">
        <g id="Group-8" data-name="Group" transform="translate(0 0)">
          <path id="Path-88" data-name="Path" d="M.46,1.592A131.73,131.73,0,0,0,46.622,4.1c.8-.109.8-1.744,0-1.635A132.409,132.409,0,0,1,.8.012C-.006-.151-.345,1.375.46,1.592Z" transform="translate(0 0)" fill="#ec615b"/>
        </g>
      </g>
      <g id="Group-9" data-name="Group" transform="translate(180.173 249.989)" opacity="0.3">
        <g id="Group-10" data-name="Group" transform="translate(0 0)">
          <path id="Path-89" data-name="Path" d="M1.128,1.868a75.567,75.567,0,0,1-1.1,22.069A.816.816,0,0,0,.62,24.972c3.642.381,7.242.763,10.884,1.144,1.567.163,5.082,1.58,6.056-.654.508-1.144.381-3.106.466-4.359.085-1.962.127-3.923.212-5.885A62.414,62.414,0,0,1,19.8,2.031c.127-.49-.212-1.09-.593-1.035A51.8,51.8,0,0,1,2.822.015C2.314-.094,1.975.4,2.06,1a2.289,2.289,0,0,0,.381,1.2c.466.872,1.567.054,1.1-.817L3.288.56l-.762.981A52.358,52.358,0,0,0,19.254,2.576c-.212-.327-.424-.708-.593-1.035C16.967,8.025,17.137,14.782,16.8,21.485a13.953,13.953,0,0,1-.212,2.779c-.466.817-1.525.49-2.118.436-1.525-.163-3.049-.327-4.616-.49-3.049-.327-6.141-.654-9.19-.981.212.327.424.708.593,1.035A75.556,75.556,0,0,0,2.4,1.759a.644.644,0,1,0-1.271.109Z" transform="translate(0 0)" fill="#ec615b"/>
        </g>
      </g>
      <path id="Path-90" data-name="Path" d="M0,2.234Q.572,42.775,1.143,83.371q43.705,7.111,87.369,14.168Q89.656,48.742,90.841,0,45.421,1.144,0,2.234Z" transform="translate(0 0)" fill="#b5e1fb" opacity="0.38"/>
      <path id="Path-91" data-name="Path" d="M70.76,82.3a17.231,17.231,0,0,0,1.525-3.869,5.082,5.082,0,0,0-.889-2.452c-1.4-3-2.8-6.048-4.15-9.045-.678-1.471-1.525-3-2.075-4.523-.678-1.853-.042-2.452.678-4.032a61.694,61.694,0,0,0,2.922-7.792c2.88-9.808,3.346-21.088-.085-30.787C63.095,3.94,49.585.344,37.346.017,24.683-.365,11.894,5.738,4.355,19.361-4.369,35.109.84,57.178,12.656,67.64,24.98,78.593,42.216,78.1,55.091,69.22c.72-.49.085-1.907-.635-1.417C44.037,75,31.883,76.141,20.745,71.073,9.225,65.842.374,51.184,1.221,35,2.2,16.8,16.086,5.084,28.918,2.36a42.356,42.356,0,0,1,11.731-.545c5.378.381,10.8,1.362,15.712,4.3,6.945,4.141,11.646,12.151,13.044,21.851,1.652,11.443-1.143,23.213-6.1,32.64a.924.924,0,0,0,0,.817L67.881,71.4c.678,1.526,1.4,3,2.075,4.523a5.446,5.446,0,0,1,.889,2.834,11.668,11.668,0,0,1-1.1,2.779c-.466.872.635,1.744,1.016.763Z" transform="translate(5.301 6.468)" fill="#0070bc"/>
      <path id="Path-92" data-name="Path" d="M.219,1.367a56.456,56.456,0,0,0,15.415,11.77c.762.381,1.1-1.2.339-1.58A55.859,55.859,0,0,1,1.108.223C.473-.485-.417.659.219,1.367Z" transform="translate(59.749 75.084)" fill="#5222d0"/>
      <ellipse id="Oval-7" data-name="Oval" cx="3.049" cy="5.722" rx="3.049" ry="5.722" transform="translate(19.1 37.435)" fill="#0070bc" stroke="#5222d0" stroke-miterlimit="10" stroke-width="1"/>
      <ellipse id="Oval-8" data-name="Oval" cx="3.049" cy="5.722" rx="3.049" ry="5.722" transform="translate(36.548 36.727)" fill="#0070bc" stroke="#5222d0" stroke-miterlimit="10" stroke-width="1"/>
      <ellipse id="Oval-9" data-name="Oval" cx="3.049" cy="5.722" rx="3.049" ry="5.722" transform="translate(53.531 36.073)" fill="#0070bc" stroke="#5222d0" stroke-miterlimit="10" stroke-width="1"/>
    </g>
  </g>
  <g id="undraw_online_ad_re_ol62" transform="translate(36.98 145.278)">
    <path id="Path_765" data-name="Path 765" d="M535.014,269.568H418.705v-2.4H365.966v2.4H249.178a7.868,7.868,0,0,0-7.868,7.868h0V436.7a7.868,7.868,0,0,0,7.868,7.868H535.014a7.868,7.868,0,0,0,7.868-7.868V277.435a7.868,7.868,0,0,0-7.867-7.867Z" transform="translate(-164.502 -235.489)" fill="#9897a2"/>
    <rect id="Rectangle_125" data-name="Rectangle 125" width="280.475" height="158.217" transform="translate(87.356 47.983)" fill="#e6e6e6"/>
    <rect id="Rectangle_130" data-name="Rectangle 130" width="256.782" height="136.759" transform="translate(99.251 56.349)" fill="#fff"/>
    <ellipse id="Ellipse_120" data-name="Ellipse 120" cx="2.877" cy="2.877" rx="2.877" ry="2.877" transform="translate(224.477 37.915)" fill="#6c63ff"/>
    <path id="Path_766" data-name="Path 766" d="M535.932,648.189H508.56v-1.972a.391.391,0,0,0-.391-.391h-9.385a.391.391,0,0,0-.391.391h0v1.972h-5.865v-1.972a.391.391,0,0,0-.391-.391h-9.385a.391.391,0,0,0-.391.391h0v1.972h-5.865v-1.972a.391.391,0,0,0-.391-.391h-9.385a.391.391,0,0,0-.391.391h0v1.972h-5.865v-1.972a.391.391,0,0,0-.391-.391h-9.384a.391.391,0,0,0-.391.391h0v1.972h-5.866v-1.972a.391.391,0,0,0-.391-.391h-9.385a.391.391,0,0,0-.391.391h0v1.972H428.4v-1.972a.391.391,0,0,0-.391-.391h-9.383a.391.391,0,0,0-.391.391h0v1.972h-5.867v-1.972a.391.391,0,0,0-.391-.391H338.458a.391.391,0,0,0-.391.391h0v1.972H332.2v-1.972a.391.391,0,0,0-.391-.391h-9.385a.391.391,0,0,0-.391.391h0v1.972h-5.865v-1.972a.391.391,0,0,0-.391-.391h-9.385a.391.391,0,0,0-.391.391h0v1.972h-5.866v-1.972a.391.391,0,0,0-.391-.391h-9.384a.391.391,0,0,0-.391.391h0v1.972h-5.864v-1.972a.391.391,0,0,0-.391-.391h-9.386a.391.391,0,0,0-.391.391h0v1.972h-5.865v-1.972a.391.391,0,0,0-.391-.391H258.3a.391.391,0,0,0-.391.391h0v1.972H252.04v-1.972a.391.391,0,0,0-.391-.391h-9.387a.391.391,0,0,0-.391.391h0v1.972H223.885a9.385,9.385,0,0,0-9.385,9.385v4.243a9.385,9.385,0,0,0,9.385,9.385H535.932a9.385,9.385,0,0,0,9.385-9.384v-4.243a9.385,9.385,0,0,0-9.385-9.385Z" transform="translate(-149.678 -444.865)" fill="#9897a2"/>
    <rect id="Rectangle_126" data-name="Rectangle 126" width="113.551" height="119.362" transform="translate(170.867 65.942)" fill="#e6e6e6"/>
    <rect id="Rectangle_128" data-name="Rectangle 128" width="474.32" height="0.894" transform="translate(0 225.938)" fill="#e6e6e6"/>
    <ellipse id="Ellipse_127" data-name="Ellipse 127" cx="15.091" cy="15.091" rx="15.091" ry="15.091" transform="translate(226.252 69.549)" fill="#a0616a"/>
    <path id="Path_803" data-name="Path 803" d="M531.686,511.214l9.746-61.352a23.261,23.261,0,0,1,29.5-18.678h0a23.191,23.191,0,0,1,16.345,26.582l-10.193,54.79Z" transform="translate(-325.066 -325.663)" fill="#43d6fc"/>
    <path id="Path_804" data-name="Path 804" d="M606.729,600.138a6.179,6.179,0,0,0,1.073-9.413l10.074-19.509-11.345,1.211L598.7,590.767a6.214,6.214,0,0,0,8.025,9.371Z" transform="translate(-361.22 -403.611)" fill="#a0616a"/>
    <path id="Path_805" data-name="Path 805" d="M615.794,521.3a2.768,2.768,0,0,1-1.491-.707l-3.854-3.562a2.774,2.774,0,0,1-.671-3.105l7.7-18.26-1.093-36.079a8.907,8.907,0,0,1,17.651,2.408h0l1.869,22.68a28.493,28.493,0,0,1-5.492,19.291L618.4,520.2a2.768,2.768,0,0,1-1.963,1.108A2.737,2.737,0,0,1,615.794,521.3Z" transform="translate(-368.127 -337.623)" fill="#ff6f0e"/>
    <path id="Path_806" data-name="Path 806" d="M414.825,358.128a6.179,6.179,0,0,0,8.249,4.659l14.037,16.883,3.308-10.92-13.837-14.359a6.214,6.214,0,0,0-11.757,3.736Z" transform="translate(-260.388 -281.71)" fill="#a0616a"/>
    <path id="Path_807" data-name="Path 807" d="M439.07,378.564a2.769,2.769,0,0,1,1.233-1.1l4.783-2.161a2.774,2.774,0,0,1,3.121.593l13.811,14.213,33.65,13.061a8.907,8.907,0,0,1-9.1,15.315h0l-21.613-7.122a28.494,28.494,0,0,1-15.624-12.579l-10.271-17.395a2.762,2.762,0,0,1,.01-2.828Z" transform="translate(-273.637 -295.148)" fill="#ff6f0e"/>
    <path id="Path_808" data-name="Path 808" d="M621.977,502.685l-.614,19.662-11.319,19.67L619.5,520.1Z" transform="translate(-368.394 -365.716)" opacity="0.1"/>
    <path id="Path_696" data-name="Path 696" d="M578.276,351.256c1.557,1.842,4.191,2.362,6.621,2.575a62.32,62.32,0,0,0,16.934-1.383c.344,3.336-.594,6.933,1.371,9.678a44.929,44.929,0,0,0,1.6-10.185,9.754,9.754,0,0,0-.564-4.362,4.012,4.012,0,0,0-3.418-2.52,8.566,8.566,0,0,1,3.821-1.634l-4.774-2.4,1.226-1.259-8.644-.529,2.5-1.591a54.287,54.287,0,0,0-11.373-.358,9.761,9.761,0,0,0-5.03,1.4c-1.427,1.021-2.252,3.049-1.366,4.547a6.6,6.6,0,0,0-5.032,3.993,10.657,10.657,0,0,0-.382,5.124,36.32,36.32,0,0,0,1.9,8.056" transform="translate(-347.153 -274.18)" fill="#2f2e41"/>
    <path id="Path_138" data-name="Path 138" d="M547.018,235.572,409.507,267.319a2.617,2.617,0,0,1-3.134-1.959L398.5,231.25a2.617,2.617,0,0,1,1.959-3.134l137.512-31.747a2.617,2.617,0,0,1,3.134,1.959l7.875,34.111A2.617,2.617,0,0,1,547.018,235.572Z" transform="translate(-251.382 -196.301)" fill="#fff"/>
    <path id="Path_138-2" data-name="Path 138" d="M547.018,235.572,409.507,267.319a2.617,2.617,0,0,1-3.134-1.959L398.5,231.25a2.617,2.617,0,0,1,1.959-3.134l137.512-31.747a2.617,2.617,0,0,1,3.134,1.959l7.875,34.111A2.617,2.617,0,0,1,547.018,235.572Zm-146.328-6.438a1.57,1.57,0,0,0-1.175,1.881l7.875,34.111a1.57,1.57,0,0,0,1.881,1.175l137.512-31.747a1.57,1.57,0,0,0,1.175-1.881l-7.875-34.111a1.57,1.57,0,0,0-1.881-1.175Z" transform="translate(-251.382 -196.301)" fill="#e6e6e6"/>
    <path id="Path_139" data-name="Path 139" d="M508.516,246.179a1.774,1.774,0,1,0,.792,3.459h.006l81.5-18.816a1.774,1.774,0,0,0-.8-3.458Z" transform="translate(-311.491 -213.451)" fill="#e6e6e6"/>
    <path id="Path_140" data-name="Path 140" d="M513.873,282.641a1.774,1.774,0,1,0,.792,3.459h.006l35.071-8.1a1.774,1.774,0,0,0-.792-3.459h-.006Z" transform="translate(-314.454 -239.54)" fill="#e6e6e6"/>
    <g id="Group_45" data-name="Group 45" transform="translate(164.097 34.427)">
      <ellipse id="Ellipse_18" data-name="Ellipse 18" cx="10.646" cy="10.646" rx="10.646" ry="10.646" fill="#63d4ff"/>
      <path id="Path_395" data-name="Path 395" d="M451.9,294.36a1.649,1.649,0,0,1-1.041-.1l-.02-.009-4.284-1.945a1.661,1.661,0,1,1,1.376-3.025l2.776,1.264,3.894-8.556a1.66,1.66,0,0,1,2.2-.823h0l-.023.056.025-.056a1.662,1.662,0,0,1,.823,2.2l-4.58,10.066a1.661,1.661,0,0,1-1.141.928Z" transform="translate(-441.549 -277.572)" fill="#fff"/>
    </g>
  </g>
</svg>
